<svg width="413" height="401" viewBox="0 0 413 401" fill="none" xmlns="http://www.w3.org/2000/svg">
<g clip-path="url(#clip0_629_10461)">
<path d="M352.536 197.223C433.155 243.877 433.155 319.42 352.536 366.074C271.917 412.728 141.169 412.728 60.4642 366.074C-20.1547 319.42 -20.1547 243.877 60.4642 197.223C141.169 150.655 271.917 150.655 352.536 197.223Z" fill="#3C185E"/>
<path d="M303.353 264.315C288.711 272.766 288.711 286.564 303.353 295.015C317.995 303.466 341.767 303.466 356.41 295.015C371.052 286.564 371.052 272.766 356.41 264.315C341.767 255.778 317.995 255.778 303.353 264.315Z" fill="#341055"/>
<path d="M90.2656 295.015L258.136 392.118L335.137 347.62L167.181 250.517L90.2656 295.015Z" fill="#E0E0E0"/>
<path d="M60.3769 314.16L25.5799 294.067C24.5463 293.463 24.5463 292.514 25.5799 291.911L147.8 221.283C148.834 220.679 150.47 220.679 151.504 221.283L186.301 241.376C187.335 241.98 187.335 242.928 186.301 243.532L64.0806 314.16C63.047 314.763 61.4105 314.763 60.3769 314.16Z" fill="#E0E0E0"/>
<path d="M170.284 7.67505L67.0984 67.3508C65.0312 68.5581 63.3086 71.4901 63.3086 73.8185V306.743C63.3086 309.158 65.0312 310.107 67.0984 308.899L170.284 249.31C172.351 248.103 174.074 245.171 174.074 242.842V9.9172C173.987 7.50258 172.351 6.55397 170.284 7.67505ZM168.561 221.369C168.561 223.439 167.097 224.732 165.374 225.767L71.5772 279.924C69.7684 280.959 68.3903 280.096 68.3903 278.027V95.6364C68.3903 93.5667 69.8546 91.0658 71.5772 90.031L165.374 35.7882C167.183 34.7533 168.561 35.6157 168.561 37.5991V221.369Z" fill="#37474F"/>
<path d="M66.581 309.158C64.5138 310.107 61.4992 310.02 59.5182 308.899L55.2117 306.398C53.1445 305.191 51.4219 302.259 51.4219 299.931V67.0058C51.4219 66.0572 51.6803 65.1086 52.1109 64.16C52.2832 63.8151 52.3693 63.5563 52.5416 63.2976L64.3416 70.1103C64.0832 70.5415 63.9109 71.0589 63.6525 71.4901C63.3941 72.2662 63.2219 73.0424 63.2219 73.8185V306.743C63.308 308.986 64.7722 310.02 66.581 309.158Z" fill="#263238"/>
<path d="M119.552 258.623C122.825 256.726 125.495 258.278 125.495 262.073C125.495 265.867 122.825 270.438 119.552 272.335C116.279 274.232 113.609 272.68 113.609 268.886C113.609 265.091 116.279 260.521 119.552 258.623Z" fill="#15B09B"/>
<path d="M118.689 42.5146C120.067 41.7385 121.187 42.3421 121.187 43.9806C121.187 45.6191 120.067 47.5163 118.689 48.3787C117.311 49.1548 116.191 48.5512 116.191 46.9127C116.191 45.2742 117.311 43.377 118.689 42.5146Z" fill="black"/>
<path d="M108.958 57.8647L128.337 46.654C129.457 45.9641 130.404 46.4815 130.404 47.6888C130.404 48.9823 129.457 50.5346 128.337 51.1383L108.958 62.349C107.838 63.0389 106.891 62.5215 106.891 61.3142C106.891 60.1069 107.838 58.5546 108.958 57.8647Z" fill="black"/>
<path d="M168.561 221.197C168.561 223.266 167.097 224.56 165.375 225.595L71.5775 279.751C69.7687 280.786 68.3906 279.924 68.3906 277.854V95.4639C68.3906 93.3942 69.8549 90.8933 71.5775 89.8585L165.375 35.6157C167.183 34.5808 168.561 35.4432 168.561 37.4267V221.197Z" fill="#15B09B" stroke="white" stroke-miterlimit="10"/>
<path d="M173.988 9.31355C173.73 7.3301 172.179 6.64021 170.284 7.76129L67.099 67.3507C66.0654 67.9544 65.118 68.9892 64.4289 70.1966L52.6289 63.3839C53.318 62.1766 54.2654 61.228 55.299 60.6243L158.484 0.862362C160.552 -0.344949 163.911 -0.344949 165.978 0.862362L170.284 3.36322C172.179 4.4843 173.73 6.98516 173.988 9.31355Z" fill="#455A64"/>
<path d="M96.2964 120.128C97.3299 119.524 98.3635 119.179 99.2248 119.179C100.086 119.179 100.861 119.438 101.55 119.955C102.239 120.472 102.67 121.249 103.101 122.283C103.445 123.318 103.704 124.526 103.704 125.992C103.704 126.509 103.704 126.94 103.704 127.371C103.704 127.803 103.704 128.234 103.704 128.579C103.704 128.924 103.704 129.355 103.704 129.786C103.704 130.217 103.704 130.648 103.704 131.166C103.618 132.718 103.445 134.184 103.101 135.564C102.756 137.03 102.239 138.323 101.637 139.617C101.034 140.911 100.258 142.032 99.3971 142.98C98.5358 144.015 97.5883 144.791 96.4686 145.395L90.181 149.017C90.0088 149.103 89.8365 149.103 89.7504 149.017C89.6643 148.931 89.5781 148.672 89.5781 148.413V125.129C89.5781 124.871 89.6643 124.612 89.7504 124.353C89.8365 124.094 90.0088 123.922 90.181 123.836L96.2964 120.128ZM99.3971 128.234C99.311 125.56 98.2774 124.784 96.2102 125.905L93.7986 127.285V140.997L96.2964 139.531C98.2774 138.41 99.311 136.426 99.3971 133.58C99.3971 133.063 99.3971 132.546 99.3971 132.114C99.3971 131.683 99.3971 131.252 99.3971 130.821C99.3971 130.39 99.3971 129.958 99.3971 129.527C99.3971 129.182 99.3971 128.751 99.3971 128.234Z" fill="white"/>
<path d="M114.644 109.52C114.988 109.348 115.161 109.348 115.333 109.52C115.505 109.693 115.591 109.865 115.678 110.124L120.759 129.872C120.845 130.045 120.845 130.217 120.845 130.39C120.845 130.648 120.759 130.821 120.673 130.993C120.587 131.252 120.415 131.338 120.329 131.424L117.4 133.149C117.056 133.322 116.883 133.322 116.711 133.235C116.539 133.149 116.539 132.977 116.453 132.804L115.764 130.217L109.562 133.839L108.873 137.202C108.873 137.375 108.787 137.634 108.615 137.978C108.443 138.237 108.27 138.496 107.926 138.668L104.997 140.393C104.825 140.479 104.739 140.479 104.653 140.393C104.567 140.307 104.48 140.134 104.48 139.962C104.48 139.876 104.48 139.617 104.567 139.358L109.648 113.746C109.734 113.487 109.821 113.142 109.993 112.797C110.165 112.452 110.424 112.194 110.682 112.021L114.644 109.52ZM110.854 127.458L114.644 125.302L112.749 117.713L110.854 127.458Z" fill="white"/>
<path d="M133.077 98.8271C133.249 98.7409 133.421 98.7409 133.507 98.8271C133.593 98.9133 133.679 99.172 133.679 99.4308V103.225C133.679 103.484 133.593 103.743 133.507 104.001C133.421 104.26 133.249 104.432 133.077 104.519L128.942 106.933V125.388C128.942 125.647 128.856 125.905 128.77 126.164C128.684 126.423 128.512 126.595 128.339 126.681L125.239 128.492C125.066 128.579 124.894 128.579 124.808 128.492C124.722 128.406 124.636 128.148 124.636 127.889V109.434L120.501 111.849C120.329 111.935 120.157 111.935 120.071 111.849C119.985 111.763 119.898 111.504 119.898 111.245V107.451C119.898 107.192 119.985 106.933 120.071 106.675C120.157 106.416 120.329 106.243 120.501 106.157L133.077 98.8271Z" fill="white"/>
<path d="M142.894 93.2217C143.238 93.0492 143.411 93.0492 143.583 93.2217C143.755 93.3942 143.841 93.5667 143.928 93.8254L149.009 113.574C149.095 113.746 149.095 113.919 149.095 114.091C149.095 114.35 149.009 114.522 148.923 114.695C148.837 114.953 148.665 115.04 148.579 115.126L145.65 116.851C145.306 117.023 145.133 117.023 144.961 116.937C144.789 116.851 144.789 116.678 144.703 116.506L144.014 113.919L137.812 117.54L137.123 120.904C137.123 121.076 137.037 121.335 136.865 121.68C136.693 121.939 136.52 122.197 136.176 122.37L133.247 124.094C133.075 124.181 132.989 124.181 132.903 124.094C132.817 124.008 132.73 123.836 132.73 123.663C132.73 123.577 132.73 123.318 132.817 123.06L137.898 97.4473C137.984 97.1886 138.071 96.8437 138.243 96.4987C138.415 96.1538 138.674 95.8951 138.932 95.7226L142.894 93.2217ZM139.104 111.159L142.894 109.003L140.999 101.414L139.104 111.159Z" fill="white"/>
<path d="M324.888 96.3262C319.375 96.5849 317.567 97.6198 314.638 100.983C311.882 104.26 298.359 129.355 298.359 129.355C298.359 129.355 300.857 136.426 306.456 135.823L316.792 119.093L324.888 96.3262Z" fill="#FFA8A7"/>
<path d="M325.575 96.3263C325.575 96.3263 321.613 95.8088 318.857 96.8437C316.015 97.8785 314.637 99.862 312.742 102.88C311.277 105.122 306.023 114.608 306.023 114.608C306.023 114.608 308.607 121.68 315.842 121.68L325.575 96.3263Z" fill="#E0E0E0"/>
<path d="M344.353 274.405V273.197C343.923 274.577 341.683 280.614 338.41 283.546C335.826 285.96 332.209 288.72 331.347 291.393C330.4 294.153 336.343 295.101 338.755 294.67C341.597 294.153 345.301 292.514 347.282 290.1C348.66 288.375 349.607 286.305 350.555 284.926C351.588 283.546 353.914 282.08 354.431 280.441C354.689 279.579 354.345 277.682 353.914 276.043C353.569 274.577 353.139 272.939 352.622 273.111C352.622 273.284 352.622 273.973 352.622 273.973C352.019 274.663 350.382 275.267 348.488 275.353C347.282 275.526 344.267 275.353 344.353 274.405Z" fill="#263238"/>
<path d="M335.997 285.702C336.772 285.012 337.633 284.236 338.322 283.632C340.648 281.562 342.37 277.94 343.404 275.526C344.007 274.146 344.265 272.68 344.265 271.128V266.385H352.534V274.06V274.232C352.103 275.957 348.313 280.528 346.16 283.546C344.696 285.529 341.94 288.116 338.667 288.548C335.566 289.065 334.016 288.03 335.997 285.702Z" fill="#FFA8A7"/>
<path d="M315.068 266.212V265.005C314.637 266.385 312.398 272.421 309.125 275.353C306.541 277.768 302.924 280.527 302.062 283.201C301.115 285.96 307.058 286.909 309.47 286.478C312.312 285.96 316.016 284.322 317.997 281.907C319.375 280.183 320.322 278.113 321.27 276.733C322.303 275.353 324.629 273.887 325.146 272.249C325.404 271.386 325.059 269.489 324.629 267.851C324.284 266.385 323.854 264.746 323.337 264.919C323.337 265.091 323.337 265.781 323.337 265.781C322.734 266.471 321.097 267.075 319.202 267.161C317.997 267.42 315.068 267.161 315.068 266.212Z" fill="#263238"/>
<path d="M306.798 277.509C307.573 276.819 308.434 276.043 309.124 275.44C311.449 273.37 313.172 269.748 314.205 267.333C314.808 265.954 315.067 264.488 315.067 262.935V258.192H323.335V265.867V266.04C322.905 267.765 319.115 272.335 316.961 275.353C315.497 277.337 312.741 279.924 309.468 280.355C306.281 280.872 304.731 279.924 306.798 277.509Z" fill="#FFA8A7"/>
<path d="M350.985 145.395C357.445 159.451 350.726 208.951 350.726 208.951C350.899 211.193 353.482 215.678 354.516 225.767C355.636 237.668 352.707 267.42 352.707 267.42C352.707 267.42 348.831 269.92 344.353 267.765C344.353 267.765 336.428 222.921 334.964 211.107C333.672 200.845 331.174 178.165 331.174 178.165L327.212 211.021C327.212 211.021 329.021 216.799 329.452 221.197C330.141 228.096 323.423 260.434 323.423 260.434C323.423 260.434 320.58 261.469 315.154 260.693C315.154 260.693 312.742 217.834 312.139 209.469C311.106 195.412 311.709 151.69 314.293 143.325L350.985 145.395Z" fill="#455A64"/>
<path d="M331.174 178.165L329.107 165.143C329.107 165.143 320.322 163.332 316.273 159.538C316.273 159.538 320.494 164.798 326.695 166.523L329.021 176.612L327.384 208.951L331.174 178.165Z" fill="#37474F"/>
<path d="M339.615 96.5849C342.027 96.7574 342.888 96.6712 344.611 96.8437C348.142 97.1886 349.003 102.363 350.467 105.467C352.018 108.744 352.018 112.625 350.898 116.074L345.127 132.718C345.127 132.718 347.797 139.186 350.898 145.395C336.514 153.415 318.513 149.189 314.206 143.325C314.034 142.118 315.154 132.373 315.843 125.992C313.345 119.61 312.656 115.557 313.689 111.331C315.67 103.484 322.819 96.3262 324.8 96.3262L339.615 96.5849Z" fill="#F0F0F0"/>
<path d="M351.933 65.0224L348.919 64.7637C349.263 64.5912 349.608 64.2462 349.78 63.9013C350.469 62.694 350.039 61.228 348.833 60.5381L346.938 64.0738C343.751 58.6409 337.722 55.1052 331.003 55.4501L329.453 55.5363C319.893 56.0538 312.485 64.2462 313.002 73.8185C313.519 83.7357 314.122 94.8602 314.122 94.8602L332.037 93.9116C342.201 93.3942 349.952 84.6843 349.436 74.5084L349.263 71.9213C349.177 70.2828 348.833 68.6443 348.316 67.1783C348.574 67.3508 348.833 67.437 349.177 67.437C350.555 67.3508 351.761 66.4022 351.933 65.0224Z" fill="#455A64"/>
<path d="M316.274 74.8533C316.188 76.8368 316.188 77.9579 316.446 80.5449C317.135 89.5135 320.15 91.497 321.614 92.1006C323.079 92.6181 325.921 92.1006 328.591 91.497V96.7574C328.591 96.7574 325.318 101.414 325.749 103.829C326.093 106.243 331.347 106.588 334.706 104.001C338.065 101.414 339.444 97.0161 339.444 97.0161V84.6843C339.444 84.6843 341.425 87.0127 344.353 84.8568C347.281 82.7009 347.109 77.6991 345.3 76.0606C343.492 74.3359 339.616 75.112 339.099 77.6129C339.099 77.6129 332.811 77.0955 332.036 66.7471C326.093 74.4222 316.619 68.903 316.274 74.8533Z" fill="#FFA8A7"/>
<path d="M338.929 77.0093L339.187 81.4073C337.551 81.4936 336.087 80.2 336.001 78.5615L335.742 73.646L338.929 77.0093Z" fill="#455A64"/>
<path d="M327.387 77.5267C327.387 78.1303 327.903 78.734 328.506 78.6478C329.109 78.6478 329.626 78.1303 329.626 77.4404C329.626 76.8368 329.109 76.2331 328.506 76.3194C327.903 76.4056 327.387 76.923 327.387 77.5267Z" fill="#263238"/>
<path d="M327.3 85.4604L324.285 86.5815C324.544 87.4439 325.491 87.8751 326.352 87.6164C327.214 87.2714 327.644 86.3228 327.3 85.4604Z" fill="#F28F8F"/>
<path d="M328.68 72.5249L331.35 73.3873C331.608 72.6974 331.264 71.9213 330.488 71.6626C329.713 71.4039 328.938 71.7488 328.68 72.5249Z" fill="#455A64"/>
<path d="M317.738 78.0441C317.738 78.6477 318.255 79.2514 318.858 79.1652C319.461 79.1652 319.978 78.6477 319.978 77.9578C319.978 77.3542 319.461 76.7505 318.858 76.8368C318.255 76.8368 317.738 77.3542 317.738 78.0441Z" fill="#263238"/>
<path d="M324.285 77.0955L324.543 83.8219L320.926 82.9596L324.285 77.0955Z" fill="#F28F8F"/>
<path d="M328.508 91.5832C331.35 91.0658 337.207 89.0824 337.982 86.6677C337.982 86.6677 337.724 88.1338 336.087 89.7723C334.365 91.4108 328.508 93.3942 328.508 93.3942V91.5832Z" fill="#F28F8F"/>
<path d="M335.911 146.947C340.648 145.826 341.509 144.015 340.304 139.358C340.217 139.186 340.217 139.013 340.131 138.927C339.184 136.685 335.48 138.065 335.48 138.065C335.48 138.065 337.031 136.168 338.667 133.753C340.304 131.338 341.165 127.371 341.337 124.612C341.596 121.852 342.026 116.247 342.026 116.247C342.026 116.247 345.73 114.005 344.266 110.038L349.95 106.502C349.95 106.502 350.381 106.761 350.984 107.278C351.845 110.21 351.759 113.315 350.725 116.247L344.955 132.891C344.955 132.891 348.314 138.841 350.725 145.567C340.131 151.518 327.556 150.741 319.977 147.637C326.178 148.413 331.777 147.982 335.911 146.947Z" fill="#E6E6E6"/>
<path d="M339.959 76.1469L333.413 76.4918C332.982 74.8533 331.432 73.7323 329.709 73.8185H329.106C327.556 73.9047 326.35 74.9396 325.833 76.2331C325.317 75.7157 324.542 75.457 323.68 75.457C322.905 75.457 322.302 75.7157 321.871 76.1469C321.182 75.0258 319.977 74.3359 318.598 74.4222H317.996C316.015 74.5084 314.464 76.2331 314.55 78.2166C314.636 80.2 316.359 81.7523 318.34 81.666H318.943C320.924 81.5798 322.474 79.8551 322.388 77.8716C322.388 77.4404 322.302 77.0955 322.13 76.7505C322.474 76.3194 322.991 76.1469 323.68 76.1469C324.542 76.1469 325.317 76.4918 325.661 77.0093C325.661 77.268 325.575 77.5267 325.661 77.7854C325.747 79.7688 327.47 81.3211 329.451 81.2348H330.054C332.035 81.1486 333.585 79.4239 333.499 77.4404C333.499 77.3542 333.499 77.3542 333.499 77.268L339.356 76.923C339.615 76.4918 339.787 76.2331 339.959 76.1469ZM319.029 81.0624H318.426C316.79 81.1486 315.325 79.8551 315.239 78.2166C315.153 76.5781 316.445 75.112 318.082 75.0258H318.685C320.321 74.9396 321.785 76.2331 321.871 77.8716C321.958 79.5101 320.666 80.9761 319.029 81.0624ZM330.14 80.4587H329.537C327.901 80.545 326.436 79.2514 326.35 77.6129C326.264 75.9744 327.556 74.5084 329.193 74.4222H329.796C331.432 74.3359 332.896 75.6295 332.982 77.268C333.069 78.9065 331.777 80.3725 330.14 80.4587Z" fill="#263238"/>
<path d="M286.387 124.094L315.499 131.769L323.509 164.712L295.861 156.692L286.387 124.094Z" fill="#15B09B"/>
<path opacity="0.25" d="M286.387 124.094L315.499 131.769L323.509 164.712L295.861 156.692L286.387 124.094Z" fill="black"/>
<path opacity="0.2" d="M306.023 151.345C306.196 153.156 307.488 155.226 311.105 156.951C314.723 158.675 321.785 157.727 321.785 157.727L320.838 153.674L306.023 151.345Z" fill="black"/>
<g opacity="0.2">
<path opacity="0.2" d="M299.563 147.465C299.305 148.241 298.013 150.742 294.223 151L293.965 149.965L299.563 147.465Z" fill="black"/>
</g>
<g opacity="0.1">
<path opacity="0.1" d="M295.173 129.355C295.173 129.355 295.086 128.837 294.914 128.234C294.742 127.63 296.465 127.63 298.704 128.148L303.011 129.269C305.25 129.872 307.145 130.821 307.317 131.425L307.576 132.546L295.173 129.355Z" fill="black"/>
</g>
<path d="M292.933 125.129C292.847 124.784 293.536 124.612 294.483 124.871L296.206 125.302C296.206 125.302 295.689 122.887 299.479 123.749C303.269 124.612 304.044 127.285 304.044 127.285C304.044 127.285 304.819 127.544 305.853 127.803C306.886 128.061 307.748 128.665 307.92 129.01L308.092 129.7L293.105 125.733C293.105 125.819 293.019 125.56 292.933 125.129Z" fill="#37474F"/>
<path d="M295.001 126.337C296.379 126.682 296.982 126.854 297.154 127.803C297.413 128.924 297.499 129.7 297.499 129.7L304.131 131.425C304.131 131.425 303.786 130.045 303.7 129.527C303.614 129.01 303.786 128.665 304.906 128.924L304.992 128.492L294.57 125.819L295.001 126.337Z" fill="#37474F"/>
<path d="M294.743 129.441C294.743 129.441 294.657 128.924 294.485 128.32C294.312 127.716 296.035 127.716 298.274 128.234L302.581 129.355C304.82 129.959 306.715 130.907 306.887 131.511L307.146 132.632L294.743 129.441Z" fill="#37474F"/>
<path d="M289.487 134.702C289.487 134.702 290.606 138.41 290.865 139.358C291.123 140.221 294.396 141.859 296.549 142.463C298.703 143.066 301.028 143.756 299.995 146.775C299.047 149.534 295.516 150.138 293.707 150.052C291.898 149.965 289.487 148.241 288.453 145.481C287.247 141.945 287.85 138.151 287.419 136.168C286.903 134.012 288.367 133.408 289.487 134.702Z" fill="#FFA8A7"/>
<path d="M344.007 96.8437C347.797 97.1024 351.672 99.172 352.275 103.656C352.878 108.227 356.496 132.114 355.118 134.788C351.759 140.997 329.795 152.811 327.642 153.846C325.488 154.881 321.871 156.519 317.478 156.606C314.033 156.606 309.468 156.519 307.229 153.415C305.161 150.655 304.042 145.567 308.607 146.43C313.258 147.292 319.201 146.861 319.201 146.861L318.684 144.619C318.684 144.619 319.89 144.532 322.216 145.222C324.541 145.912 326.608 143.929 330.656 141.428C335.91 138.151 343.921 131.338 343.921 131.338L340.648 111.418C340.648 111.331 340.475 102.708 344.007 96.8437Z" fill="#FFA8A7"/>
<path d="M343.318 96.8437C343.318 96.8437 345.299 96.4125 347.538 97.1886C349.777 98.051 351.759 99.172 352.62 103.656C353.567 108.141 355.376 124.439 355.376 124.439C355.376 124.439 350.553 127.975 342.715 126.25L339.872 111.418C339.872 111.418 337.633 101.069 343.318 96.8437Z" fill="#E0E0E0"/>
<path d="M74.418 175.75L166.492 122.542V135.305L74.418 188.599V175.75Z" fill="#455A64"/>
<path d="M78.0352 177.906V182.132L162.788 133.235V128.924L78.0352 177.906Z" fill="#263238"/>
<path d="M74.4185 175.75L70.7148 173.68L162.789 120.472L166.493 122.542L74.4185 175.75Z" fill="#37474F"/>
<path d="M70.7148 173.68L74.4185 175.75V188.599L70.7148 186.443V173.68Z" fill="#263238"/>
<path d="M339.616 341.842L258.566 388.668V386.599L339.616 339.772V341.842Z" fill="#37474F"/>
<path d="M181.22 213.953L163.391 224.301L152.452 230.597C152.108 230.769 151.763 230.942 151.419 231.2C147.371 233.701 144.442 238.185 144.442 243.705V295.102C144.442 300.103 142.031 304.243 138.585 306.916C136.088 308.813 132.901 309.934 129.714 309.934C127.302 309.934 124.718 309.331 122.393 307.951C108.698 300.017 100.257 285.443 100.257 269.662V216.368C100.257 208.434 98.1897 200.845 94.3138 194.205C90.524 187.565 85.0116 181.959 78.1211 177.992L159.171 131.166C165.975 135.133 171.574 140.738 175.363 147.378C179.153 154.019 181.307 161.607 181.307 169.541V192.739C181.22 199.293 181.22 213.953 181.22 213.953Z" fill="#F5F5F5"/>
<path d="M210.678 358.917C196.983 350.983 188.542 336.409 188.542 320.628V269.231C188.542 263.194 187.336 257.416 185.096 252.069C184.407 250.345 183.546 248.706 182.685 247.154C178.895 240.514 173.383 234.908 166.492 230.942C156.673 225.25 144.356 232.408 144.442 243.705V248.965V243.705V295.102V284.408V295.102C144.442 306.485 132.212 313.556 122.307 307.865C108.612 299.931 100.171 285.357 100.171 269.576V216.281C100.171 208.348 98.1038 200.759 94.2279 194.119C90.4381 187.478 84.9257 181.873 78.0352 177.906V180.062C90.6103 187.737 98.276 201.535 98.276 216.281V269.576C98.276 285.96 107.061 301.224 121.273 309.503C126.441 312.521 132.642 312.521 137.81 309.503C138.155 309.331 138.413 309.158 138.758 308.899C143.323 305.795 146.079 300.793 146.079 295.188V243.791C146.079 239.134 148.491 234.908 152.539 232.58C156.587 230.252 161.41 230.252 165.459 232.58C173.641 237.323 179.842 244.567 183.374 253.018C185.527 258.106 186.647 263.625 186.647 269.317V281.217V320.714C186.647 337.099 195.432 352.363 209.644 360.641L258.394 388.841V386.771L210.678 358.917Z" fill="#455A64"/>
<path d="M339.617 339.772L258.567 386.598L210.678 358.917C196.983 350.983 188.542 336.409 188.542 320.628V269.231C188.542 263.194 187.337 257.416 185.097 252.069C184.408 250.345 183.547 248.706 182.685 247.154C178.896 240.514 173.383 234.908 166.493 230.942C161.842 228.268 156.588 228.441 152.367 230.597L163.306 224.301L185.356 211.538L232.642 184.201L232.728 184.115C237.034 181.614 242.547 181.269 247.456 184.115C254.261 188.082 259.773 193.687 263.649 200.328C267.439 206.968 269.592 214.557 269.592 222.49V273.887C269.592 289.669 278.033 304.329 291.728 312.176L339.617 339.772Z" fill="#FAFAFA"/>
<path d="M186.735 269.231C186.735 263.539 185.615 258.02 183.462 252.932C179.931 244.481 173.729 237.151 165.547 232.494C161.498 230.165 156.675 230.165 152.627 232.494C148.579 234.822 146.167 239.048 146.167 243.705V295.102C146.167 300.707 143.497 305.795 138.846 308.813C138.501 308.986 138.243 309.244 137.898 309.417L186.735 281.217V269.231Z" fill="#E0E0E0"/>
<path opacity="0.15" d="M186.735 269.231C186.735 263.539 185.615 258.02 183.462 252.932C179.931 244.481 173.729 237.151 165.547 232.494C161.498 230.165 156.675 230.165 152.627 232.494C148.579 234.822 146.167 239.048 146.167 243.705V295.102C146.167 300.707 143.497 305.795 138.846 308.813C138.501 308.986 138.243 309.244 137.898 309.417L186.735 281.217V269.231Z" fill="black"/>
<path d="M92.5052 178.165C94.2278 179.631 97.2424 179.976 99.3957 178.682L157.19 145.222C159.343 143.929 159.86 141.6 158.137 140.134C156.415 138.668 153.228 138.668 150.988 139.876L93.1081 173.335C91.041 174.629 90.7826 176.699 92.5052 178.165Z" fill="#15B09B"/>
<path opacity="0.4" d="M139.103 165.488C138.845 165.488 138.672 165.402 138.586 165.143C138.414 164.798 138.5 164.453 138.845 164.281L165.89 148.672C166.234 148.499 166.579 148.586 166.751 148.931C166.923 149.275 166.837 149.62 166.493 149.793L139.447 165.402C139.275 165.488 139.189 165.488 139.103 165.488Z" fill="black"/>
<path opacity="0.4" d="M141.169 169.024C140.911 169.024 140.739 168.937 140.653 168.679C140.48 168.334 140.566 167.989 140.911 167.816L167.956 152.208C168.301 152.035 168.645 152.121 168.817 152.466C168.99 152.811 168.904 153.156 168.559 153.329L141.514 168.937C141.428 169.024 141.255 169.024 141.169 169.024Z" fill="black"/>
<path opacity="0.4" d="M142.892 172.646C142.634 172.646 142.461 172.559 142.375 172.301C142.203 171.956 142.289 171.611 142.634 171.438L169.679 155.829C170.023 155.657 170.368 155.743 170.54 156.088C170.712 156.433 170.626 156.778 170.282 156.951L143.237 172.559C143.15 172.646 143.064 172.646 142.892 172.646Z" fill="black"/>
<path opacity="0.4" d="M144.357 176.44C144.098 176.44 143.926 176.354 143.84 176.095C143.668 175.75 143.754 175.405 144.098 175.233L171.144 159.624C171.488 159.451 171.833 159.538 172.005 159.883C172.177 160.228 172.091 160.572 171.747 160.745L144.701 176.354C144.529 176.354 144.443 176.44 144.357 176.44Z" fill="black"/>
<path opacity="0.4" d="M145.392 180.148C145.134 180.148 144.961 180.062 144.875 179.803C144.703 179.458 144.789 179.113 145.134 178.941L172.179 163.332C172.523 163.16 172.868 163.246 173.04 163.591C173.212 163.936 173.126 164.281 172.782 164.453L145.737 180.062C145.564 180.062 145.478 180.148 145.392 180.148Z" fill="black"/>
<path opacity="0.4" d="M146.079 184.115C145.821 184.115 145.649 184.029 145.563 183.77C145.39 183.425 145.477 183.08 145.821 182.908L172.866 167.299C173.211 167.126 173.555 167.213 173.728 167.558C173.9 167.903 173.814 168.248 173.469 168.42L146.424 184.029C146.252 184.029 146.166 184.115 146.079 184.115Z" fill="black"/>
<path opacity="0.4" d="M146.423 188.341C146.165 188.341 145.993 188.254 145.906 187.996C145.734 187.651 145.82 187.306 146.165 187.133L173.21 171.525C173.555 171.352 173.899 171.438 174.071 171.783C174.244 172.128 174.158 172.473 173.813 172.646L146.768 188.254C146.682 188.341 146.509 188.341 146.423 188.341Z" fill="black"/>
<path opacity="0.4" d="M107.924 218.61C107.751 218.61 107.579 218.523 107.493 218.351C107.407 218.092 107.407 217.834 107.665 217.747L173.297 179.803C173.556 179.717 173.814 179.717 173.9 179.976C173.986 180.234 173.986 180.493 173.728 180.579L108.096 218.523C108.01 218.61 108.01 218.61 107.924 218.61Z" fill="black"/>
<path opacity="0.4" d="M107.924 222.663C107.751 222.663 107.579 222.577 107.493 222.404C107.407 222.145 107.407 221.887 107.665 221.8L173.297 183.856C173.556 183.77 173.814 183.77 173.9 184.029C173.986 184.288 173.986 184.546 173.728 184.632L108.096 222.577C108.01 222.663 108.01 222.663 107.924 222.663Z" fill="black"/>
<path opacity="0.4" d="M107.924 226.716C107.751 226.716 107.579 226.63 107.493 226.457C107.407 226.199 107.407 225.94 107.665 225.854L173.297 187.909C173.556 187.823 173.814 187.823 173.9 188.082C173.986 188.341 173.986 188.599 173.728 188.686L108.096 226.63C108.01 226.716 108.01 226.716 107.924 226.716Z" fill="black"/>
<path opacity="0.4" d="M107.924 230.769C107.751 230.769 107.579 230.683 107.493 230.51C107.407 230.252 107.407 229.993 107.665 229.907L173.297 191.963C173.556 191.876 173.814 191.876 173.9 192.135C173.986 192.394 173.986 192.653 173.728 192.739L108.096 230.683C108.01 230.769 108.01 230.769 107.924 230.769Z" fill="black"/>
<path opacity="0.4" d="M107.924 212.659C107.751 212.659 107.579 212.573 107.493 212.401C107.407 212.142 107.407 211.883 107.665 211.797L142.376 191.704C142.635 191.618 142.893 191.618 142.979 191.876C143.065 192.135 143.065 192.394 142.807 192.48L108.096 212.573C108.01 212.659 108.01 212.659 107.924 212.659Z" fill="black"/>
<path d="M106.891 189.462C108.269 192.221 109.389 194.981 110.078 197.654C110.853 200.155 111.284 203.26 111.542 206.623C111.628 207.226 112.059 207.485 112.576 207.226L114.471 206.105C114.987 205.76 115.418 205.071 115.418 204.381C115.16 201.19 114.643 198.085 113.781 195.153C112.834 192.135 111.8 189.462 110.681 187.22C110.422 186.702 109.733 186.443 109.13 186.788L107.235 187.909C106.805 188.168 106.633 188.858 106.891 189.462Z" fill="#15B09B"/>
<path d="M112.66 181.355C114.382 184.115 116.019 187.392 117.311 191.273C118.345 194.377 119.12 197.999 119.378 202.138C119.464 202.742 119.895 203.001 120.412 202.742L122.307 201.621C122.823 201.276 123.254 200.586 123.254 199.896C122.996 196.188 122.307 192.566 121.101 189.031C119.895 185.409 118.345 182.132 116.45 179.2C116.105 178.682 115.416 178.51 114.813 178.768L112.918 179.803C112.488 180.234 112.315 180.838 112.66 181.355Z" fill="#15B09B"/>
<path d="M127.906 185.15L126.012 186.271C125.495 186.616 125.236 187.306 125.409 187.909C126.27 190.755 126.873 194.032 127.131 197.654C127.217 198.258 127.648 198.517 128.165 198.258L130.06 197.137C130.577 196.792 131.007 196.102 131.007 195.412C130.749 192.135 130.146 188.858 129.198 185.667C129.026 185.064 128.423 184.891 127.906 185.15Z" fill="#15B09B"/>
<path d="M135.571 177.475C135.312 176.871 134.71 176.699 134.193 176.957L132.298 178.079C131.781 178.423 131.523 179.113 131.781 179.717C132.126 180.579 132.47 181.528 132.815 182.39C133.848 185.495 134.623 189.117 134.882 193.256C134.968 193.86 135.399 194.119 135.915 193.86L137.81 192.739C138.327 192.394 138.758 191.704 138.758 191.014C138.499 187.306 137.81 183.684 136.604 180.148C136.26 179.286 135.915 178.337 135.571 177.475Z" fill="#15B09B"/>
<path opacity="0.4" d="M109.215 204.898C109.129 204.726 108.957 204.726 108.784 204.812L108.009 205.243C107.837 204.122 107.665 203.001 107.406 201.966L108.526 201.362C108.698 201.276 108.698 201.104 108.612 200.931C108.526 200.759 108.354 200.759 108.181 200.845L107.234 201.362C106.976 200.241 106.631 199.206 106.287 198.085L107.32 197.482C107.492 197.396 107.492 197.223 107.406 197.051C107.32 196.878 107.148 196.878 106.976 196.964L106.028 197.482C105.684 196.447 105.253 195.412 104.822 194.463V194.377L105.856 193.774C106.028 193.687 106.028 193.515 105.942 193.342C105.856 193.17 105.684 193.17 105.511 193.256L104.564 193.86C104.133 192.825 103.616 191.876 103.1 190.842L104.133 190.238C104.305 190.152 104.305 189.979 104.219 189.807C104.133 189.634 103.961 189.634 103.789 189.72L102.755 190.324C102.238 189.376 101.635 188.427 100.946 187.478L102.066 186.788C102.238 186.702 102.238 186.53 102.152 186.357C102.066 186.185 101.894 186.185 101.722 186.271L100.516 186.961C99.8267 185.926 99.1376 184.977 98.3624 184.029C98.2763 183.856 98.0179 183.856 97.9318 183.943C97.7595 184.029 97.7595 184.288 97.8456 184.374C98.6208 185.322 99.3099 186.271 99.9989 187.22L98.8792 187.823C98.707 187.909 98.707 188.082 98.7931 188.254C98.8792 188.341 98.9653 188.427 99.0515 188.427C99.1376 188.427 99.1376 188.427 99.2237 188.341L100.343 187.651C100.946 188.599 101.549 189.548 102.152 190.497L100.86 191.273C100.688 191.359 100.688 191.531 100.774 191.704C100.86 191.79 100.946 191.876 101.033 191.876C101.119 191.876 101.119 191.876 101.205 191.79L102.497 191.014C103.014 192.049 103.53 192.997 103.961 194.032L102.669 194.808C102.497 194.895 102.497 195.067 102.583 195.24C102.669 195.326 102.755 195.412 102.841 195.412C102.927 195.412 102.927 195.412 103.014 195.326L104.305 194.636C104.736 195.671 105.167 196.706 105.511 197.74L104.133 198.517C103.961 198.603 103.961 198.775 104.047 198.948C104.133 199.034 104.219 199.12 104.305 199.12C104.392 199.12 104.392 199.12 104.478 199.034L105.77 198.344C106.114 199.379 106.459 200.5 106.717 201.621L105.339 202.397C105.167 202.483 105.167 202.656 105.253 202.828C105.339 202.915 105.425 203.001 105.511 203.001C105.597 203.001 105.597 203.001 105.684 202.915L106.889 202.225C107.148 203.346 107.32 204.381 107.492 205.502L106.028 206.364C105.856 206.45 105.856 206.623 105.942 206.795C106.028 206.882 106.114 206.968 106.2 206.968C106.287 206.968 106.287 206.968 106.373 206.882L107.578 206.192C107.751 207.571 107.923 208.951 108.009 210.331C108.009 210.503 108.181 210.676 108.354 210.676C108.526 210.676 108.698 210.503 108.698 210.331C108.612 208.865 108.44 207.313 108.268 205.933L109.301 205.329C109.301 205.243 109.301 205.071 109.215 204.898Z" fill="black"/>
<g opacity="0.15">
<g opacity="0.15">
<path opacity="0.15" d="M112.49 267.937C112.232 265.522 112.145 263.022 112.232 260.607C112.49 259.658 116.366 246.205 123.601 242.066C124.118 241.807 124.548 241.549 124.979 241.462C125.151 241.376 125.41 241.376 125.582 241.376C127.477 241.376 128.338 244.049 129.199 246.637C129.544 247.671 129.888 248.793 130.319 249.741C130.836 250.776 131.611 252.156 133.248 252.156C133.85 252.156 134.54 251.983 135.229 251.552C138.674 249.569 139.707 244.222 140.741 238.617C141.258 236.03 141.688 233.442 142.464 231.114C143.497 227.837 144.875 225.767 146.77 224.646C147.373 224.301 147.89 224.129 148.407 224.129C150.388 224.129 151.163 227.665 151.938 231.2C152.369 233.097 152.713 235.081 153.402 236.461C154.091 238.099 155.125 238.962 156.331 238.962C156.934 238.962 157.623 238.789 158.398 238.272C162.618 235.857 163.91 231.631 165.202 227.665C166.236 224.215 167.269 221.024 170.026 219.386C170.801 218.955 171.49 218.696 172.093 218.696C172.437 218.696 172.696 218.782 173.04 218.868C173.213 219.989 173.213 220.766 173.213 220.766L173.299 228.872C173.385 230.424 173.471 231.631 173.643 232.666L112.49 267.937Z" fill="#15B09B"/>
</g>
<g opacity="0.15">
<path opacity="0.15" d="M173.9 233.011C173.728 231.804 173.642 230.424 173.556 228.958L173.47 220.852C173.47 220.852 173.47 219.903 173.297 218.61C172.867 218.437 172.436 218.351 172.005 218.351C171.316 218.351 170.541 218.61 169.68 219.041C163.392 222.663 165.804 233.442 158.052 237.927C157.363 238.358 156.76 238.53 156.243 238.53C155.124 238.53 154.262 237.668 153.746 236.288C151.937 232.149 151.937 223.698 148.405 223.698C147.889 223.698 147.286 223.87 146.597 224.301C144.357 225.595 143.065 228.01 142.118 231.028C139.792 238.272 139.965 248.534 135.141 251.207C134.452 251.552 133.935 251.725 133.419 251.725C132.299 251.725 131.524 250.862 130.921 249.569C129.456 246.464 128.94 241.031 125.753 241.031C125.494 241.031 125.322 241.031 125.064 241.117C124.633 241.204 124.116 241.462 123.513 241.721C115.848 246.205 111.886 260.607 111.886 260.607C111.8 263.367 111.972 266.04 112.23 268.713L113.092 268.196C113.005 267.937 113.005 267.765 112.919 267.247C112.747 265.091 112.661 262.935 112.661 260.779C113.005 259.486 116.881 246.55 123.772 242.497C124.202 242.239 124.633 242.066 125.064 241.98C125.236 241.98 125.408 241.894 125.581 241.894C127.131 241.894 127.992 244.394 128.767 246.809C129.112 247.93 129.456 249.051 129.887 249.914C130.232 250.603 131.179 252.587 133.246 252.587C133.935 252.587 134.624 252.328 135.486 251.897C139.103 249.827 140.137 244.394 141.256 238.617C141.687 236.116 142.204 233.442 142.979 231.2C144.013 228.01 145.305 226.026 147.027 224.991C147.544 224.646 148.061 224.56 148.405 224.56C150.042 224.56 150.817 228.096 151.42 231.2C151.851 233.097 152.281 235.081 152.884 236.547C153.659 238.358 154.779 239.307 156.243 239.307C156.932 239.307 157.708 239.048 158.569 238.617C162.962 236.116 164.34 231.631 165.546 227.751C166.579 224.388 167.527 221.283 170.197 219.731C170.886 219.3 171.489 219.127 172.092 219.127C172.264 219.127 172.436 219.127 172.608 219.213C172.694 220.162 172.694 220.766 172.694 220.766L172.781 228.958C172.867 230.338 172.953 231.545 173.039 232.494C173.125 232.925 173.125 233.27 173.211 233.442L173.9 233.011Z" fill="black"/>
</g>
</g>
<g opacity="0.4">
<path opacity="0.4" d="M111.801 256.468V260.607C111.714 263.453 111.801 266.04 112.145 268.713L173.901 233.011C173.729 231.804 173.643 230.424 173.557 228.958L173.471 220.852C173.471 220.852 173.471 208.693 165.719 213.177C157.622 217.834 159.862 232.753 154.177 236.116C148.406 239.479 150.301 226.199 142.636 230.683C134.884 235.167 138.76 245.084 131.094 249.569C123.342 254.053 127.218 231.545 119.552 236.03C111.714 240.255 111.714 251.293 111.801 256.468Z" fill="#15B09B"/>
</g>
<path opacity="0.4" d="M108.958 274.922C108.872 274.922 108.7 274.836 108.7 274.75C108.614 274.577 108.7 274.405 108.786 274.319L174.504 236.633C174.676 236.547 174.849 236.633 174.935 236.719C175.021 236.892 174.935 237.064 174.849 237.151L109.13 274.836C109.044 274.922 109.044 274.922 108.958 274.922Z" fill="black"/>
<path d="M119.466 237.927C119.293 237.927 119.121 237.754 119.121 237.582V236.978C119.121 236.806 119.293 236.633 119.466 236.633C119.638 236.633 119.81 236.806 119.81 236.978V237.582C119.81 237.754 119.638 237.927 119.466 237.927Z" fill="white"/>
<path d="M119.638 262.677C119.466 262.677 119.293 262.59 119.293 262.418C119.293 261.987 119.207 261.556 119.207 261.211C119.207 261.038 119.293 260.866 119.466 260.866C119.638 260.866 119.81 260.952 119.81 261.124C119.81 261.556 119.896 261.9 119.896 262.332C119.982 262.504 119.896 262.677 119.638 262.677ZM119.466 260.176C119.293 260.176 119.121 260.003 119.121 259.831C119.121 259.486 119.121 259.055 119.121 258.623C119.121 258.451 119.293 258.279 119.466 258.279C119.638 258.279 119.81 258.451 119.81 258.623C119.81 259.055 119.81 259.486 119.81 259.831C119.81 260.089 119.724 260.176 119.466 260.176ZM119.466 257.761C119.293 257.761 119.121 257.589 119.121 257.416V256.209C119.121 256.036 119.293 255.864 119.466 255.864C119.638 255.864 119.81 256.036 119.81 256.209V257.416C119.81 257.589 119.638 257.761 119.466 257.761ZM119.466 255.26C119.293 255.26 119.121 255.088 119.121 254.915V253.708C119.121 253.536 119.293 253.363 119.466 253.363C119.638 253.363 119.81 253.536 119.81 253.708V254.915C119.81 255.088 119.638 255.26 119.466 255.26ZM119.466 252.759C119.293 252.759 119.121 252.587 119.121 252.414V251.207C119.121 251.035 119.293 250.862 119.466 250.862C119.638 250.862 119.81 251.035 119.81 251.207V252.414C119.81 252.673 119.638 252.759 119.466 252.759ZM119.466 250.345C119.293 250.345 119.121 250.172 119.121 250V248.793C119.121 248.62 119.293 248.448 119.466 248.448C119.638 248.448 119.81 248.62 119.81 248.793V250C119.81 250.172 119.638 250.345 119.466 250.345ZM119.466 247.844C119.293 247.844 119.121 247.671 119.121 247.499V246.292C119.121 246.119 119.293 245.947 119.466 245.947C119.638 245.947 119.81 246.119 119.81 246.292V247.499C119.81 247.671 119.638 247.844 119.466 247.844ZM119.466 245.343C119.293 245.343 119.121 245.171 119.121 244.998V243.791C119.121 243.618 119.293 243.446 119.466 243.446C119.638 243.446 119.81 243.618 119.81 243.791V244.998C119.81 245.257 119.638 245.343 119.466 245.343ZM119.466 242.928C119.293 242.928 119.121 242.756 119.121 242.583V241.376C119.121 241.204 119.293 241.031 119.466 241.031C119.638 241.031 119.81 241.204 119.81 241.376V242.583C119.81 242.756 119.638 242.928 119.466 242.928ZM119.466 240.428C119.293 240.428 119.121 240.255 119.121 240.083V238.875C119.121 238.703 119.293 238.53 119.466 238.53C119.638 238.53 119.81 238.703 119.81 238.875V240.083C119.81 240.255 119.638 240.428 119.466 240.428Z" fill="white"/>
<path d="M119.895 264.574C119.723 264.574 119.637 264.488 119.551 264.315C119.551 264.143 119.465 263.884 119.465 263.711C119.465 263.539 119.551 263.366 119.723 263.366C119.896 263.366 120.068 263.453 120.068 263.625C120.068 263.798 120.154 264.056 120.154 264.229C120.24 264.315 120.068 264.488 119.895 264.574Z" fill="white"/>
<path d="M165.805 214.039C165.633 214.039 165.461 213.867 165.461 213.694V213.091C165.461 212.918 165.633 212.746 165.805 212.746C165.978 212.746 166.15 212.918 166.15 213.091V213.694C166.064 213.867 165.978 214.039 165.805 214.039Z" fill="white"/>
<path d="M165.978 238.789C165.805 238.789 165.633 238.703 165.633 238.53C165.633 238.099 165.547 237.668 165.547 237.323C165.547 237.151 165.633 236.978 165.805 236.978C165.978 236.978 166.15 237.064 166.15 237.237C166.15 237.668 166.236 238.013 166.236 238.444C166.322 238.617 166.15 238.703 165.978 238.789ZM165.805 236.288C165.633 236.288 165.461 236.116 165.461 235.943C165.461 235.598 165.461 235.167 165.461 234.736C165.461 234.563 165.633 234.391 165.805 234.391C165.978 234.391 166.15 234.563 166.15 234.736C166.15 235.167 166.15 235.598 166.15 235.943C166.15 236.116 165.978 236.288 165.805 236.288ZM165.805 233.787C165.633 233.787 165.461 233.615 165.461 233.442V232.235C165.461 232.063 165.633 231.89 165.805 231.89C165.978 231.89 166.15 232.063 166.15 232.235V233.442C166.15 233.701 165.978 233.787 165.805 233.787ZM165.805 231.373C165.633 231.373 165.461 231.2 165.461 231.028V229.82C165.461 229.648 165.633 229.476 165.805 229.476C165.978 229.476 166.15 229.648 166.15 229.82V231.028C166.064 231.2 165.978 231.373 165.805 231.373ZM165.805 228.872C165.633 228.872 165.461 228.699 165.461 228.527V227.32C165.461 227.147 165.633 226.975 165.805 226.975C165.978 226.975 166.15 227.147 166.15 227.32V228.527C166.064 228.699 165.978 228.872 165.805 228.872ZM165.805 226.371C165.633 226.371 165.461 226.199 165.461 226.026V224.819C165.461 224.646 165.633 224.474 165.805 224.474C165.978 224.474 166.15 224.646 166.15 224.819V226.026C166.064 226.285 165.978 226.371 165.805 226.371ZM165.805 223.956C165.633 223.956 165.461 223.784 165.461 223.611V222.404C165.461 222.232 165.633 222.059 165.805 222.059C165.978 222.059 166.15 222.232 166.15 222.404V223.611C166.064 223.784 165.978 223.956 165.805 223.956ZM165.805 221.456C165.633 221.456 165.461 221.283 165.461 221.111V219.903C165.461 219.731 165.633 219.558 165.805 219.558C165.978 219.558 166.15 219.731 166.15 219.903V221.111C166.064 221.283 165.978 221.456 165.805 221.456ZM165.805 218.955C165.633 218.955 165.461 218.782 165.461 218.61V217.402C165.461 217.23 165.633 217.057 165.805 217.057C165.978 217.057 166.15 217.23 166.15 217.402V218.61C166.064 218.868 165.978 218.955 165.805 218.955ZM165.805 216.54C165.633 216.54 165.461 216.368 165.461 216.195V214.988C165.461 214.815 165.633 214.643 165.805 214.643C165.978 214.643 166.15 214.815 166.15 214.988V216.195C166.064 216.368 165.978 216.54 165.805 216.54Z" fill="white"/>
<path d="M166.149 240.6C165.977 240.6 165.891 240.514 165.805 240.341C165.805 240.169 165.719 239.91 165.719 239.738C165.719 239.565 165.805 239.393 165.977 239.393C166.149 239.393 166.322 239.479 166.322 239.651C166.322 239.824 166.408 240.083 166.408 240.255C166.494 240.428 166.408 240.6 166.149 240.6C166.236 240.6 166.149 240.6 166.149 240.6Z" fill="white"/>
<path d="M142.634 232.58C142.461 232.58 142.289 232.408 142.289 232.235V231.631C142.289 231.459 142.461 231.286 142.634 231.286C142.806 231.286 142.978 231.459 142.978 231.631V232.235C142.978 232.408 142.806 232.58 142.634 232.58Z" fill="white"/>
<path d="M142.806 249.482C142.634 249.482 142.461 249.396 142.461 249.224C142.461 248.793 142.375 248.448 142.375 248.016C142.375 247.844 142.461 247.671 142.634 247.671C142.806 247.671 142.978 247.758 142.978 247.93C142.978 248.361 143.064 248.706 143.064 249.137C143.15 249.31 142.978 249.482 142.806 249.482ZM142.634 247.068C142.461 247.068 142.289 246.895 142.289 246.723V245.516C142.289 245.343 142.461 245.171 142.634 245.171C142.806 245.171 142.978 245.343 142.978 245.516V246.723C142.978 246.895 142.806 247.068 142.634 247.068ZM142.634 244.653C142.461 244.653 142.289 244.481 142.289 244.308V243.101C142.289 242.928 142.461 242.756 142.634 242.756C142.806 242.756 142.978 242.928 142.978 243.101V244.308C142.978 244.481 142.806 244.653 142.634 244.653ZM142.634 242.239C142.461 242.239 142.289 242.066 142.289 241.894V240.686C142.289 240.514 142.461 240.341 142.634 240.341C142.806 240.341 142.978 240.514 142.978 240.686V241.894C142.978 242.066 142.806 242.239 142.634 242.239ZM142.634 239.824C142.461 239.824 142.289 239.651 142.289 239.479V238.272C142.289 238.099 142.461 237.927 142.634 237.927C142.806 237.927 142.978 238.099 142.978 238.272V239.479C142.978 239.651 142.806 239.824 142.634 239.824ZM142.634 237.409C142.461 237.409 142.289 237.237 142.289 237.064V235.857C142.289 235.685 142.461 235.512 142.634 235.512C142.806 235.512 142.978 235.685 142.978 235.857V237.064C142.978 237.237 142.806 237.409 142.634 237.409ZM142.634 234.995C142.461 234.995 142.289 234.822 142.289 234.65V233.442C142.289 233.27 142.461 233.097 142.634 233.097C142.806 233.097 142.978 233.27 142.978 233.442V234.65C142.978 234.822 142.806 234.995 142.634 234.995Z" fill="white"/>
<path d="M142.978 251.293C142.805 251.293 142.719 251.207 142.633 251.035C142.633 250.862 142.547 250.603 142.547 250.431C142.547 250.259 142.633 250.086 142.805 250.086C142.978 250.086 143.15 250.172 143.15 250.345C143.15 250.517 143.236 250.776 143.236 250.948C143.322 251.121 143.236 251.293 142.978 251.293C143.064 251.293 143.064 251.293 142.978 251.293Z" fill="white"/>
<path opacity="0.4" d="M119.463 234.477C120.066 234.132 120.583 234.391 120.583 234.995C120.583 235.598 120.066 236.461 119.463 236.806C118.861 237.151 118.344 236.892 118.344 236.288C118.344 235.685 118.861 234.822 119.463 234.477Z" fill="black"/>
<path opacity="0.4" d="M142.635 229.131C143.238 228.786 143.755 229.044 143.755 229.648C143.755 230.252 143.238 231.114 142.635 231.459C142.032 231.804 141.516 231.545 141.516 230.942C141.516 230.338 142.032 229.476 142.635 229.131Z" fill="black"/>
<path opacity="0.4" d="M165.803 211.883C166.406 211.538 166.923 211.797 166.923 212.401C166.923 213.004 166.406 213.867 165.803 214.212C165.2 214.557 164.684 214.298 164.684 213.694C164.684 213.091 165.2 212.228 165.803 211.883Z" fill="black"/>
<path opacity="0.4" d="M109.388 241.98C109.56 241.894 109.56 241.721 109.474 241.549C109.388 241.376 109.216 241.376 109.044 241.462L108.182 241.98V238.617L109.302 237.927C109.474 237.84 109.474 237.668 109.388 237.496C109.302 237.323 109.13 237.323 108.958 237.409L108.096 237.927V234.391C108.096 234.219 107.924 234.046 107.752 234.046C107.579 234.046 107.407 234.219 107.407 234.391V238.272L106.201 238.962C106.029 239.048 106.029 239.22 106.115 239.393C106.201 239.479 106.287 239.565 106.374 239.565C106.46 239.565 106.46 239.565 106.546 239.479L107.407 238.962V242.325L106.201 243.015C106.029 243.101 106.029 243.273 106.115 243.446C106.201 243.532 106.287 243.618 106.374 243.618C106.46 243.618 106.46 243.618 106.546 243.532L107.407 243.015V246.378L106.201 247.068C106.029 247.154 106.029 247.326 106.115 247.499C106.201 247.585 106.287 247.671 106.374 247.671C106.46 247.671 106.46 247.671 106.546 247.585L107.407 247.068V250.345L106.201 251.035C106.029 251.121 106.029 251.293 106.115 251.466C106.201 251.552 106.287 251.638 106.374 251.638C106.46 251.638 106.46 251.638 106.546 251.552L107.407 251.035V254.312L106.201 255.002C106.029 255.088 106.029 255.26 106.115 255.433C106.201 255.519 106.287 255.605 106.374 255.605C106.46 255.605 106.46 255.605 106.546 255.519L107.407 255.002V258.365L106.201 259.055C106.029 259.141 106.029 259.313 106.115 259.486C106.201 259.572 106.287 259.658 106.374 259.658C106.46 259.658 106.46 259.658 106.546 259.572L107.407 259.055V262.332L106.201 263.022C106.029 263.108 106.029 263.28 106.115 263.453C106.201 263.539 106.287 263.625 106.374 263.625C106.46 263.625 106.46 263.625 106.546 263.539L107.407 263.022C107.407 264.143 107.407 265.264 107.407 266.299L106.201 266.988C106.029 267.075 106.029 267.247 106.115 267.42C106.201 267.506 106.287 267.592 106.374 267.592C106.46 267.592 106.46 267.592 106.546 267.506L107.493 266.988C107.579 268.196 107.666 269.403 107.838 270.61C107.838 270.783 108.01 270.869 108.182 270.869C108.355 270.869 108.441 270.697 108.441 270.524C108.268 269.231 108.182 267.937 108.096 266.643L109.216 266.04C109.388 265.954 109.388 265.781 109.302 265.609C109.216 265.436 109.044 265.436 108.871 265.522L108.096 265.954C108.096 264.832 108.01 263.711 108.096 262.677L109.216 261.987C109.388 261.9 109.388 261.728 109.302 261.555C109.216 261.383 109.044 261.383 108.871 261.469L108.01 261.987V258.71L109.13 258.02C109.302 257.934 109.302 257.761 109.216 257.589C109.13 257.416 108.958 257.416 108.785 257.502L107.924 258.02V254.743L109.044 254.053C109.216 253.967 109.216 253.794 109.13 253.622C109.044 253.449 108.871 253.449 108.699 253.536L107.838 254.053V250.69L108.958 250C109.13 249.914 109.13 249.741 109.044 249.569C108.958 249.396 108.785 249.396 108.613 249.482L107.752 250V246.723L108.871 246.033C109.044 245.947 109.044 245.774 108.958 245.602C108.871 245.429 108.699 245.429 108.527 245.516L107.666 246.033V242.756L109.388 241.98Z" fill="black"/>
<path opacity="0.4" d="M110.076 279.234C109.904 279.234 109.731 279.148 109.645 278.975C109.559 278.717 109.559 278.458 109.818 278.372L179.326 238.185C179.584 238.099 179.842 238.099 179.928 238.358C180.015 238.617 180.015 238.875 179.756 238.962L110.248 279.148C110.248 279.234 110.162 279.234 110.076 279.234Z" fill="black"/>
<path opacity="0.4" d="M111.541 283.028C111.369 283.028 111.196 282.942 111.11 282.77C111.024 282.511 111.024 282.252 111.282 282.166L180.79 241.98C181.049 241.894 181.307 241.894 181.393 242.152C181.479 242.411 181.479 242.67 181.221 242.756L111.713 282.942C111.627 283.028 111.627 283.028 111.541 283.028Z" fill="black"/>
<path opacity="0.4" d="M113.263 286.65C113.091 286.65 112.919 286.564 112.833 286.392C112.747 286.133 112.747 285.874 113.005 285.788L182.513 245.602C182.771 245.515 183.03 245.515 183.116 245.774C183.202 246.033 183.202 246.292 182.944 246.378L113.436 286.564C113.436 286.564 113.35 286.65 113.263 286.65Z" fill="black"/>
<path opacity="0.4" d="M115.33 290.014C115.158 290.014 114.985 289.927 114.899 289.755C114.813 289.496 114.813 289.237 115.071 289.151L184.579 248.965C184.838 248.879 185.096 248.879 185.182 249.137C185.269 249.396 185.269 249.655 185.01 249.741L115.502 289.927C115.502 290.014 115.416 290.014 115.33 290.014Z" fill="black"/>
<path d="M175.968 223.525L233.159 190.497C235.313 189.203 238.758 188.513 240.739 189.289C242.72 190.065 242.289 192.135 240.136 193.342L182.256 226.802C180.102 228.096 177.002 228.182 175.279 227.233C173.556 226.285 173.815 224.732 175.968 223.525Z" fill="#15B09B"/>
<path opacity="0.4" d="M182.599 232.58C182.427 232.58 182.255 232.494 182.169 232.321C182.083 232.063 182.083 231.804 182.341 231.718L248.231 193.601C248.49 193.515 248.748 193.515 248.834 193.774C248.921 194.032 248.921 194.291 248.662 194.377L182.772 232.494C182.772 232.58 182.685 232.58 182.599 232.58Z" fill="black"/>
<path opacity="0.4" d="M185.357 235.512C185.185 235.512 185.013 235.426 184.927 235.253C184.84 234.995 184.84 234.736 185.099 234.65L251.075 196.533C251.334 196.447 251.592 196.447 251.678 196.706C251.764 196.964 251.764 197.223 251.506 197.309L185.529 235.426C185.529 235.512 185.443 235.512 185.357 235.512Z" fill="black"/>
<path opacity="0.4" d="M196.295 269.317C196.123 269.317 195.95 269.144 195.95 268.972V265.436C195.95 262.763 195.95 262.763 195.864 261.038V260.779C195.606 256.468 194.831 252.501 193.539 248.879C192.419 245.429 190.438 241.98 187.596 238.444C187.51 238.272 187.51 238.099 187.682 238.013C187.854 237.927 188.026 237.927 188.112 238.099C191.041 241.721 193.022 245.171 194.142 248.706C195.434 252.414 196.295 256.468 196.553 260.779V261.038C196.639 262.849 196.639 262.849 196.639 265.522V269.058C196.639 269.144 196.467 269.317 196.295 269.317Z" fill="black"/>
<path d="M195.606 241.721C195.348 241.204 195.003 240.686 194.659 240.169C194.314 239.651 194.4 238.961 195.003 238.703L220.153 224.129C220.67 223.784 221.445 223.956 221.79 224.474C222.134 224.991 222.393 225.509 222.651 226.026C222.91 226.543 222.737 227.32 222.134 227.578L197.07 242.066C196.64 242.497 195.951 242.325 195.606 241.721Z" fill="#15B09B"/>
<path d="M198.103 247.585C198.276 248.189 198.448 248.706 198.62 249.31C198.793 249.914 199.309 250.172 199.912 249.827L259.687 215.333C260.204 214.988 260.549 214.298 260.376 213.694C260.204 213.091 260.032 212.487 259.86 211.969C259.687 211.366 259.085 211.107 258.482 211.452L198.706 246.033C198.19 246.205 197.845 246.982 198.103 247.585Z" fill="#15B09B"/>
<path opacity="0.7" d="M198.103 247.585C198.276 248.189 198.448 248.706 198.62 249.31C198.793 249.914 199.309 250.172 199.912 249.827L259.687 215.333C260.204 214.988 260.549 214.298 260.376 213.694C260.204 213.091 260.032 212.487 259.86 211.969C259.687 211.366 259.085 211.107 258.482 211.452L198.706 246.033C198.19 246.205 197.845 246.982 198.103 247.585Z" fill="white"/>
<path d="M199.826 255.519C199.912 256.123 199.998 256.812 199.998 257.416C200.084 258.02 200.515 258.278 201.031 258.02L241.513 234.65C242.03 234.305 242.461 233.615 242.461 232.925C242.375 232.321 242.375 231.718 242.288 231.114C242.202 230.51 241.685 230.252 241.169 230.597L200.687 253.967C200.084 254.139 199.739 254.915 199.826 255.519Z" fill="#15B09B"/>
<path opacity="0.15" d="M199.826 255.519C199.912 256.123 199.998 256.812 199.998 257.416C200.084 258.02 200.515 258.278 201.031 258.02L241.513 234.65C242.03 234.305 242.461 233.615 242.461 232.925C242.375 232.321 242.375 231.718 242.288 231.114C242.202 230.51 241.685 230.252 241.169 230.597L200.687 253.967C200.084 254.139 199.739 254.915 199.826 255.519Z" fill="black"/>
<path d="M200.172 263.798V265.609C200.172 266.212 200.603 266.471 201.119 266.212L218.432 256.209C218.949 255.864 219.379 255.174 219.379 254.484V252.673C219.379 252.069 218.949 251.811 218.432 252.069L201.119 262.073C200.603 262.418 200.172 263.194 200.172 263.798Z" fill="#15B09B"/>
<path opacity="0.5" d="M200.172 263.798V265.609C200.172 266.212 200.603 266.471 201.119 266.212L218.432 256.209C218.949 255.864 219.379 255.174 219.379 254.484V252.673C219.379 252.069 218.949 251.811 218.432 252.069L201.119 262.073C200.603 262.418 200.172 263.194 200.172 263.798Z" fill="white"/>
<path opacity="0.4" d="M261.925 234.995C261.753 234.995 261.581 235.167 261.581 235.34V236.892L256.93 239.565V238.358C256.93 238.185 256.758 238.013 256.585 238.013C256.413 238.013 256.241 238.185 256.241 238.358V239.91L251.59 242.583V241.462C251.59 241.29 251.417 241.117 251.245 241.117C251.073 241.117 250.901 241.29 250.901 241.462V243.015L246.25 245.688V244.567C246.25 244.394 246.077 244.222 245.905 244.222C245.733 244.222 245.56 244.394 245.56 244.567V246.033L240.909 248.706V247.499C240.909 247.326 240.737 247.154 240.565 247.154C240.393 247.154 240.22 247.326 240.22 247.499V248.965L235.569 251.638V250.517C235.569 250.345 235.397 250.172 235.225 250.172C235.052 250.172 234.88 250.345 234.88 250.517V251.983L230.229 254.657V253.622C230.229 253.449 230.057 253.277 229.885 253.277C229.712 253.277 229.54 253.449 229.54 253.622V255.088L224.889 257.761V256.726C224.889 256.554 224.717 256.381 224.544 256.381C224.372 256.381 224.2 256.554 224.2 256.726V258.106L219.549 260.779V259.745C219.549 259.572 219.377 259.4 219.204 259.4C219.032 259.4 218.86 259.572 218.86 259.745V261.124L214.209 263.798V262.763C214.209 262.59 214.036 262.418 213.864 262.418C213.692 262.418 213.52 262.59 213.52 262.763V264.143L208.869 266.816V265.867C208.869 265.695 208.696 265.522 208.524 265.522C208.352 265.522 208.179 265.695 208.179 265.867V267.247L203.528 269.92V268.972C203.528 268.799 203.356 268.627 203.184 268.627C203.012 268.627 202.839 268.799 202.839 268.972V270.265L198.791 272.594C198.619 272.68 198.619 272.852 198.705 273.025C198.791 273.111 198.877 273.197 198.963 273.197C199.05 273.197 199.05 273.197 199.136 273.111L202.839 270.955V272.249C202.839 272.421 203.012 272.594 203.184 272.594C203.356 272.594 203.528 272.421 203.528 272.249V270.61L208.179 267.937V269.231C208.179 269.403 208.352 269.575 208.524 269.575C208.696 269.575 208.869 269.403 208.869 269.231V267.592L213.52 264.919V266.212C213.52 266.385 213.692 266.557 213.864 266.557C214.036 266.557 214.209 266.385 214.209 266.212V264.574L218.86 261.9V263.108C218.86 263.28 219.032 263.453 219.204 263.453C219.377 263.453 219.549 263.28 219.549 263.108V261.469L224.2 258.796V260.003C224.2 260.176 224.372 260.348 224.544 260.348C224.717 260.348 224.889 260.176 224.889 260.003V258.451L229.54 255.778V256.985C229.54 257.157 229.712 257.33 229.885 257.33C230.057 257.33 230.229 257.157 230.229 256.985V255.433L234.88 252.759V253.967C234.88 254.139 235.052 254.312 235.225 254.312C235.397 254.312 235.569 254.139 235.569 253.967V252.414L240.22 249.741V250.862C240.22 251.035 240.393 251.207 240.565 251.207C240.737 251.207 240.909 251.035 240.909 250.862V249.31L245.56 246.637V247.758C245.56 247.93 245.733 248.103 245.905 248.103C246.077 248.103 246.25 247.93 246.25 247.758V246.205L250.901 243.532V244.653C250.901 244.826 251.073 244.998 251.245 244.998C251.417 244.998 251.59 244.826 251.59 244.653V243.187L256.241 240.514V241.635C256.241 241.807 256.413 241.98 256.585 241.98C256.758 241.98 256.93 241.807 256.93 241.635V240.169L261.581 237.495V238.53C261.581 238.703 261.753 238.875 261.925 238.875C262.098 238.875 262.27 238.703 262.27 238.53V235.167C262.184 235.081 262.098 234.995 261.925 234.995Z" fill="black"/>
<path d="M211.284 277.423C210.25 277.682 209.13 278.113 207.924 278.803C201.551 282.597 196.383 291.997 196.383 299.845C196.383 300.017 196.383 300.276 196.383 300.448L207.924 295.188L211.284 277.423Z" fill="#15B09B"/>
<path d="M211.285 277.423L207.926 295.102L219.381 288.461C219.467 287.771 219.467 286.995 219.467 286.305C219.467 279.838 216.022 276.388 211.285 277.423Z" fill="#15B09B"/>
<path d="M217.831 294.412C218.606 292.428 219.037 290.445 219.295 288.461L207.84 295.102L217.831 294.412Z" fill="#15B09B"/>
<path d="M196.297 300.362C196.555 307.778 201.637 310.883 207.838 307.261C212.145 304.76 215.849 299.758 217.83 294.325L207.838 295.015L196.297 300.362Z" fill="#15B09B"/>
<path opacity="0.7" d="M211.285 277.423L207.926 295.102L219.381 288.461C219.467 287.771 219.467 286.995 219.467 286.305C219.467 279.838 216.022 276.388 211.285 277.423Z" fill="white"/>
<path opacity="0.15" d="M217.831 294.412C218.606 292.428 219.037 290.445 219.295 288.461L207.84 295.102L217.831 294.412Z" fill="black"/>
<path opacity="0.5" d="M196.297 300.362C196.555 307.778 201.637 310.883 207.838 307.261C212.145 304.76 215.849 299.758 217.83 294.325L207.838 295.015L196.297 300.362Z" fill="white"/>
<path d="M211.284 277.423C210.25 277.682 209.13 278.113 207.924 278.803C201.551 282.597 196.383 291.997 196.383 299.845C196.383 300.017 196.383 300.276 196.383 300.448L207.924 295.188L211.284 277.423Z" stroke="white" stroke-width="1.0527" stroke-miterlimit="10" stroke-linecap="round" stroke-linejoin="round"/>
<path d="M211.285 277.423L207.926 295.102L219.381 288.461C219.467 287.771 219.467 286.995 219.467 286.305C219.467 279.838 216.022 276.388 211.285 277.423Z" stroke="white" stroke-width="1.0527" stroke-miterlimit="10" stroke-linecap="round" stroke-linejoin="round"/>
<path d="M217.831 294.412C218.606 292.428 219.037 290.445 219.295 288.461L207.84 295.102L217.831 294.412Z" stroke="white" stroke-width="1.0527" stroke-miterlimit="10" stroke-linecap="round" stroke-linejoin="round"/>
<path d="M196.297 300.362C196.555 307.778 201.637 310.883 207.838 307.261C212.145 304.76 215.849 299.758 217.83 294.325L207.838 295.015L196.297 300.362Z" stroke="white" stroke-width="1.0527" stroke-miterlimit="10" stroke-linecap="round" stroke-linejoin="round"/>
<path d="M245.046 258.71C241.256 263.28 238.672 269.575 238.672 275.181C238.672 277.682 239.189 279.751 240.136 281.304L250.213 268.454L245.046 258.71Z" fill="#15B09B"/>
<path d="M255.555 252.587C254.005 252.501 252.196 253.018 250.301 254.053C248.406 255.174 246.597 256.726 245.047 258.623L250.301 268.368L255.555 252.587Z" fill="#15B09B"/>
<path d="M260.809 256.295C259.689 253.967 257.88 252.673 255.555 252.587L250.301 268.368L260.809 256.295Z" fill="#15B09B"/>
<path d="M260.808 256.295L250.3 268.454L240.223 281.304C242.204 284.494 245.993 285.357 250.3 282.77C256.674 279.062 261.842 269.662 261.842 261.728C261.928 259.572 261.497 257.761 260.808 256.295Z" fill="#15B09B"/>
<path opacity="0.7" d="M255.555 252.587C254.005 252.501 252.196 253.018 250.301 254.053C248.406 255.174 246.597 256.726 245.047 258.623L250.301 268.368L255.555 252.587Z" fill="white"/>
<path opacity="0.15" d="M260.809 256.295C259.689 253.967 257.88 252.673 255.555 252.587L250.301 268.368L260.809 256.295Z" fill="black"/>
<path opacity="0.5" d="M260.808 256.295L250.3 268.454L240.223 281.304C242.204 284.494 245.993 285.357 250.3 282.77C256.674 279.062 261.842 269.662 261.842 261.728C261.928 259.572 261.497 257.761 260.808 256.295Z" fill="white"/>
<path d="M245.046 258.71C241.256 263.28 238.672 269.575 238.672 275.181C238.672 277.682 239.189 279.751 240.136 281.304L250.213 268.454L245.046 258.71Z" stroke="white" stroke-width="1.0527" stroke-miterlimit="10" stroke-linecap="round" stroke-linejoin="round"/>
<path d="M255.555 252.587C254.005 252.501 252.196 253.018 250.301 254.053C248.406 255.174 246.597 256.726 245.047 258.623L250.301 268.368L255.555 252.587Z" stroke="white" stroke-width="1.0527" stroke-miterlimit="10" stroke-linecap="round" stroke-linejoin="round"/>
<path d="M260.809 256.295C259.689 253.967 257.88 252.673 255.555 252.587L250.301 268.368L260.809 256.295Z" stroke="white" stroke-width="1.0527" stroke-miterlimit="10" stroke-linecap="round" stroke-linejoin="round"/>
<path d="M260.808 256.295L250.3 268.454L240.223 281.304C242.204 284.494 245.993 285.357 250.3 282.77C256.674 279.062 261.842 269.662 261.842 261.728C261.928 259.572 261.497 257.761 260.808 256.295Z" stroke="white" stroke-width="1.0527" stroke-miterlimit="10" stroke-linecap="round" stroke-linejoin="round"/>
<path d="M224.287 269.144L226.182 268.023C226.699 267.678 227.13 267.937 227.13 268.627V270.438C227.13 271.042 226.699 271.818 226.182 272.163L224.287 273.284C223.771 273.629 223.34 273.37 223.34 272.68V270.869C223.34 270.265 223.771 269.489 224.287 269.144Z" fill="#15B09B"/>
<path d="M224.287 277.337L226.182 276.216C226.699 275.871 227.13 276.129 227.13 276.819V278.63C227.13 279.234 226.699 280.01 226.182 280.355L224.287 281.476C223.771 281.821 223.34 281.562 223.34 280.872V279.062C223.34 278.458 223.771 277.682 224.287 277.337Z" fill="#15B09B"/>
<path opacity="0.7" d="M224.287 277.337L226.182 276.216C226.699 275.871 227.13 276.129 227.13 276.819V278.63C227.13 279.234 226.699 280.01 226.182 280.355L224.287 281.476C223.771 281.821 223.34 281.562 223.34 280.872V279.062C223.34 278.458 223.771 277.682 224.287 277.337Z" fill="white"/>
<path d="M224.287 285.529L226.182 284.408C226.699 284.063 227.13 284.322 227.13 285.012V286.823C227.13 287.426 226.699 288.203 226.182 288.548L224.287 289.669C223.771 290.014 223.34 289.755 223.34 289.065V287.254C223.34 286.564 223.771 285.874 224.287 285.529Z" fill="#15B09B"/>
<path opacity="0.15" d="M224.287 285.529L226.182 284.408C226.699 284.063 227.13 284.322 227.13 285.012V286.823C227.13 287.426 226.699 288.203 226.182 288.548L224.287 289.669C223.771 290.014 223.34 289.755 223.34 289.065V287.254C223.34 286.564 223.771 285.874 224.287 285.529Z" fill="black"/>
<path d="M224.287 293.722L226.182 292.601C226.699 292.256 227.13 292.514 227.13 293.204V295.015C227.13 295.619 226.699 296.395 226.182 296.74L224.287 297.861C223.771 298.206 223.34 297.947 223.34 297.257V295.446C223.34 294.757 223.771 293.98 224.287 293.722Z" fill="#15B09B"/>
<path opacity="0.5" d="M224.287 293.722L226.182 292.601C226.699 292.256 227.13 292.514 227.13 293.204V295.015C227.13 295.619 226.699 296.395 226.182 296.74L224.287 297.861C223.771 298.206 223.34 297.947 223.34 297.257V295.446C223.34 294.757 223.771 293.98 224.287 293.722Z" fill="white"/>
<path opacity="0.4" d="M229.111 268.972C228.852 268.972 228.68 268.886 228.594 268.627C228.422 268.282 228.508 267.937 228.852 267.765L234.623 264.401C234.968 264.229 235.312 264.315 235.484 264.66C235.657 265.005 235.571 265.35 235.226 265.522L229.455 268.886C229.369 268.972 229.197 268.972 229.111 268.972Z" fill="black"/>
<path opacity="0.4" d="M229.025 277.251C228.766 277.251 228.594 277.164 228.508 276.906C228.336 276.561 228.422 276.216 228.766 276.043L234.537 272.68C234.882 272.508 235.226 272.594 235.399 272.939C235.571 273.284 235.485 273.629 235.14 273.801L229.369 277.164C229.283 277.251 229.111 277.251 229.025 277.251Z" fill="black"/>
<path opacity="0.4" d="M228.939 285.529C228.68 285.529 228.508 285.443 228.422 285.184C228.25 284.839 228.336 284.494 228.68 284.322L234.451 280.959C234.796 280.786 235.14 280.872 235.313 281.217C235.485 281.562 235.399 281.907 235.054 282.08L229.283 285.443C229.111 285.443 229.025 285.529 228.939 285.529Z" fill="black"/>
<path opacity="0.4" d="M228.853 293.722C228.595 293.722 228.422 293.636 228.336 293.377C228.164 293.032 228.25 292.687 228.595 292.514L234.365 289.151C234.71 288.979 235.054 289.065 235.227 289.41C235.399 289.755 235.313 290.1 234.968 290.272L229.197 293.635C229.025 293.722 228.939 293.722 228.853 293.722Z" fill="black"/>
<path opacity="0.4" d="M196.986 322.783C196.727 322.783 196.555 322.697 196.469 322.438C196.297 322.094 196.383 321.749 196.727 321.576L223.773 305.967C224.117 305.795 224.462 305.881 224.634 306.226C224.806 306.571 224.72 306.916 224.376 307.088L197.33 322.697C197.244 322.783 197.158 322.783 196.986 322.783Z" fill="black"/>
<path opacity="0.4" d="M197.931 326.837C197.673 326.837 197.5 326.75 197.414 326.492C197.242 326.147 197.328 325.802 197.673 325.629L224.718 310.02C225.062 309.848 225.407 309.934 225.579 310.279C225.752 310.624 225.665 310.969 225.321 311.141L198.276 326.75C198.103 326.837 198.017 326.837 197.931 326.837Z" fill="black"/>
<path opacity="0.4" d="M199.138 330.717C198.88 330.717 198.707 330.631 198.621 330.372C198.449 330.027 198.535 329.682 198.88 329.51L225.925 313.901C226.269 313.729 226.614 313.815 226.786 314.16C226.958 314.505 226.872 314.85 226.528 315.022L199.483 330.631C199.396 330.631 199.224 330.717 199.138 330.717Z" fill="black"/>
<path opacity="0.4" d="M239.447 298.292C239.188 298.292 239.016 298.206 238.93 297.947C238.758 297.602 238.844 297.257 239.188 297.085L266.234 281.476C266.578 281.304 266.923 281.39 267.095 281.735C267.267 282.08 267.181 282.425 266.836 282.597L239.791 298.206C239.619 298.292 239.533 298.292 239.447 298.292Z" fill="black"/>
<path opacity="0.4" d="M240.306 302.345C240.048 302.345 239.875 302.259 239.789 302C239.617 301.655 239.703 301.311 240.048 301.138L267.093 285.529C267.437 285.357 267.782 285.443 267.954 285.788C268.126 286.133 268.04 286.478 267.696 286.65L240.651 302.259C240.478 302.259 240.392 302.345 240.306 302.345Z" fill="black"/>
<path opacity="0.4" d="M241.513 306.226C241.255 306.226 241.082 306.14 240.996 305.881C240.824 305.536 240.91 305.191 241.255 305.019L268.3 289.41C268.644 289.237 268.989 289.324 269.161 289.669C269.333 290.014 269.247 290.359 268.903 290.531L241.858 306.14C241.771 306.14 241.685 306.226 241.513 306.226Z" fill="black"/>
<path d="M206.545 335.115L268.129 299.5C270.283 298.206 272.953 298.81 274.331 300.621C275.623 302.432 275.106 304.76 272.953 306.054L211.369 341.669C209.216 342.963 206.201 342.618 204.909 340.807C203.531 338.91 204.392 336.323 206.545 335.115Z" fill="#15B09B"/>
<path opacity="0.4" d="M216.708 352.535C216.45 352.535 216.278 352.449 216.192 352.19C216.019 351.845 216.105 351.5 216.45 351.328L243.495 335.719C243.84 335.546 244.184 335.633 244.357 335.978C244.529 336.323 244.443 336.668 244.098 336.84L217.053 352.449C216.967 352.535 216.795 352.535 216.708 352.535Z" fill="black"/>
<path opacity="0.4" d="M213.349 350.12C213.091 350.12 212.918 350.034 212.832 349.775C212.66 349.431 212.746 349.086 213.091 348.913L240.136 333.304C240.48 333.132 240.825 333.218 240.997 333.563C241.169 333.908 241.083 334.253 240.739 334.425L213.694 350.034C213.521 350.12 213.435 350.12 213.349 350.12Z" fill="black"/>
<path opacity="0.4" d="M220.24 354.605C219.981 354.605 219.809 354.518 219.723 354.26C219.551 353.915 219.637 353.57 219.981 353.397L247.026 337.789C247.371 337.616 247.716 337.702 247.888 338.047C248.06 338.392 247.974 338.737 247.629 338.91L220.584 354.518C220.498 354.605 220.412 354.605 220.24 354.605Z" fill="black"/>
<path opacity="0.4" d="M255.294 330.2C255.036 330.2 254.864 330.114 254.778 329.855C254.605 329.51 254.691 329.165 255.036 328.992L282.081 313.384C282.426 313.211 282.77 313.297 282.942 313.642C283.115 313.987 283.029 314.332 282.684 314.505L255.639 330.114C255.467 330.2 255.38 330.2 255.294 330.2Z" fill="black"/>
<path opacity="0.4" d="M251.935 327.871C251.677 327.871 251.504 327.785 251.418 327.526C251.246 327.182 251.332 326.837 251.677 326.664L278.722 311.055C279.066 310.883 279.411 310.969 279.583 311.314C279.755 311.659 279.669 312.004 279.325 312.176L252.279 327.785C252.107 327.785 252.021 327.871 251.935 327.871Z" fill="black"/>
<path opacity="0.4" d="M258.826 332.356C258.567 332.356 258.395 332.269 258.309 332.011C258.137 331.666 258.223 331.321 258.567 331.148L285.612 315.54C285.957 315.367 286.302 315.453 286.474 315.798C286.646 316.143 286.56 316.488 286.215 316.661L259.17 332.269C259.084 332.356 258.912 332.356 258.826 332.356Z" fill="black"/>
<path d="M259.258 351.759C253.401 348.396 243.496 348.654 237.036 352.276C230.662 355.985 230.231 361.676 236.088 365.126C241.945 368.489 251.85 368.23 258.31 364.608C264.684 360.9 265.115 355.208 259.258 351.759ZM255.209 362.883C250.644 365.557 243.582 365.729 239.361 363.315C235.141 360.9 235.485 356.761 240.05 354.174C244.615 351.5 251.678 351.328 255.898 353.742C260.119 356.157 259.774 360.21 255.209 362.883Z" fill="#15B09B"/>
<path d="M243.065 355.898C245.821 354.346 250.042 354.174 252.54 355.64C255.037 357.106 254.865 359.52 252.109 361.159C249.353 362.711 245.132 362.883 242.635 361.417C240.223 359.865 240.395 357.451 243.065 355.898Z" fill="#15B09B"/>
<path opacity="0.5" d="M243.065 355.898C245.821 354.346 250.042 354.174 252.54 355.64C255.037 357.106 254.865 359.52 252.109 361.159C249.353 362.711 245.132 362.883 242.635 361.417C240.223 359.865 240.395 357.451 243.065 355.898Z" fill="black"/>
<path opacity="0.15" d="M259.258 351.759C253.401 348.396 243.496 348.654 237.036 352.276C230.662 355.985 230.231 361.676 236.088 365.126C241.945 368.489 251.85 368.23 258.31 364.608C264.684 360.9 265.115 355.208 259.258 351.759ZM255.209 362.883C250.644 365.557 243.582 365.729 239.361 363.315C235.141 360.9 235.485 356.761 240.05 354.174C244.615 351.5 251.678 351.328 255.898 353.742C260.119 356.157 259.774 360.21 255.209 362.883Z" fill="black"/>
<path d="M242.98 350.12L244.359 352.535C246.943 351.931 249.699 351.845 252.197 352.363L254.005 349.948C250.474 349.172 246.598 349.258 242.98 350.12Z" fill="#15B09B"/>
<path opacity="0.7" d="M242.98 350.12L244.359 352.535C246.943 351.931 249.699 351.845 252.197 352.363L254.005 349.948C250.474 349.172 246.598 349.258 242.98 350.12Z" fill="white"/>
<path opacity="0.4" d="M248.491 348.913C248.404 348.913 248.404 348.913 248.491 348.913C248.06 348.913 247.801 348.568 247.888 348.223L248.06 345.291L259.946 338.392C260.291 338.22 260.635 338.306 260.807 338.651C260.98 338.996 260.893 339.341 260.549 339.513L249.266 346.067L249.093 348.309C249.093 348.654 248.835 348.913 248.491 348.913Z" fill="black"/>
<path d="M293.969 331.752C288.112 328.389 278.207 328.648 271.747 332.269C265.373 335.978 264.942 341.669 270.799 345.119C276.656 348.482 286.561 348.223 293.021 344.601C299.395 340.893 299.825 335.115 293.969 331.752ZM289.92 342.79C285.355 345.464 278.293 345.636 274.072 343.222C269.852 340.807 270.196 336.668 274.761 334.08C279.326 331.407 286.389 331.235 290.609 333.649C294.83 336.064 294.485 340.203 289.92 342.79Z" fill="#15B09B"/>
<path d="M277.864 335.805C280.62 334.253 284.841 334.08 287.338 335.546C289.836 337.012 289.664 339.427 286.908 341.066C284.152 342.618 279.931 342.79 277.433 341.324C274.935 339.858 275.108 337.357 277.864 335.805Z" fill="#15B09B"/>
<path opacity="0.5" d="M277.864 335.805C280.62 334.253 284.841 334.08 287.338 335.546C289.836 337.012 289.664 339.427 286.908 341.066C284.152 342.618 279.931 342.79 277.433 341.324C274.935 339.858 275.108 337.357 277.864 335.805Z" fill="black"/>
<path opacity="0.15" d="M293.969 331.752C288.112 328.389 278.207 328.648 271.747 332.269C265.373 335.978 264.942 341.669 270.799 345.119C276.656 348.482 286.561 348.223 293.021 344.601C299.395 340.893 299.825 335.115 293.969 331.752ZM289.92 342.79C285.355 345.464 278.293 345.636 274.072 343.222C269.852 340.807 270.196 336.668 274.761 334.08C279.326 331.407 286.389 331.235 290.609 333.649C294.83 336.064 294.485 340.203 289.92 342.79Z" fill="black"/>
<path d="M293.968 331.752C288.973 328.906 281.135 328.648 275.02 330.803L277.173 332.959C281.566 331.407 287.164 331.58 290.695 333.649C291.384 333.994 291.901 334.425 292.332 334.857L296.294 333.477C295.605 332.873 294.83 332.269 293.968 331.752Z" fill="#15B09B"/>
<path opacity="0.7" d="M293.968 331.752C288.973 328.906 281.135 328.648 275.02 330.803L277.173 332.959C281.566 331.407 287.164 331.58 290.695 333.649C291.384 333.994 291.901 334.425 292.332 334.857L296.294 333.477C295.605 332.873 294.83 332.269 293.968 331.752Z" fill="white"/>
<path opacity="0.4" d="M283.287 328.82C282.857 328.82 282.598 328.475 282.684 328.13L282.857 325.198L294.743 318.299C295.087 318.127 295.432 318.213 295.604 318.558C295.776 318.903 295.69 319.248 295.346 319.42L284.063 325.974L283.89 328.216C283.89 328.561 283.632 328.82 283.287 328.82Z" fill="black"/>
<path opacity="0.4" d="M252.107 373.059C251.848 373.059 251.676 372.973 251.59 372.714C251.418 372.369 251.504 372.025 251.848 371.852L317.481 333.994C317.825 333.822 318.17 333.908 318.342 334.253C318.514 334.598 318.428 334.943 318.083 335.115L252.451 372.973C252.365 372.973 252.193 373.059 252.107 373.059Z" fill="black"/>
<path opacity="0.4" d="M255.638 375.043C255.38 375.043 255.207 374.957 255.121 374.698C254.949 374.353 255.035 374.008 255.38 373.835L321.012 335.978C321.356 335.805 321.701 335.891 321.873 336.236C322.045 336.581 321.959 336.926 321.615 337.099L255.983 374.957C255.896 375.043 255.81 375.043 255.638 375.043Z" fill="black"/>
<path opacity="0.4" d="M259.169 377.112C258.911 377.112 258.739 377.026 258.653 376.768C258.48 376.423 258.566 376.078 258.911 375.905L324.543 338.047C324.888 337.875 325.232 337.961 325.404 338.306C325.577 338.651 325.49 338.996 325.146 339.168L259.514 377.026C259.428 377.112 259.342 377.112 259.169 377.112Z" fill="black"/>
</g>
<defs>
<clipPath id="clip0_629_10461">
<rect width="413" height="401" fill="white"/>
</clipPath>
</defs>
</svg>
